<svg width="24" height="24" viewBox="0 0 24 24" xmlns="http://www.w3.org/2000/svg">
    <defs>
        <mask id="cutout">
            <rect width="100%" height="100%" fill="white"/>
            <circle cx="12" cy="17.5" r="1.2" fill="black"/>
            <path d="M12 6C9.79 6 8 7.79 8 10H10C10 8.9 10.9 8 12 8C13.1 8 14 8.9 14 10C14 11 13.5 11.5 13 11.8C12.1 12.3 11 13 11 14V15H13V14.3C13 13.9 13.4 13.6 14.1 13.2C15 12.7 16 11.8 16 10C16 7.79 14.21 6 12 6Z"
                  fill="black"/>
        </mask>
    </defs>
    <circle cx="12" cy="12" r="10" fill="#f14b51" mask="url(#cutout)" />
</svg>
